<svg width="22" height="24" viewBox="0 0 22 24" fill="none" xmlns="http://www.w3.org/2000/svg">
<path d="M3.25365 23.6466C2.46408 23.6466 1.78826 23.3655 1.22619 22.8033C0.663938 22.241 0.382812 21.5652 0.382812 20.7758V5.28415C0.382812 4.49476 0.663938 3.81894 1.22619 3.25669C1.78826 2.69444 2.46408 2.41331 3.25365 2.41331H3.47031V1.7904C3.47031 1.39317 3.61024 1.05463 3.8901 0.774772C4.16997 0.494911 4.50851 0.35498 4.90573 0.35498C5.30295 0.35498 5.64149 0.494911 5.92135 0.774772C6.20122 1.05463 6.34115 1.39317 6.34115 1.7904V2.41331H15.6578V1.7904C15.6578 1.39317 15.7977 1.05463 16.0776 0.774772C16.3575 0.494911 16.696 0.35498 17.0932 0.35498C17.4905 0.35498 17.829 0.494911 18.1089 0.774772C18.3887 1.05463 18.5286 1.39317 18.5286 1.7904V2.41331H18.7453C19.5347 2.41331 20.2105 2.69444 20.7728 3.25669C21.335 3.81894 21.6161 4.49476 21.6161 5.28415V20.7758C21.6161 21.5652 21.335 22.241 20.7728 22.8033C20.2105 23.3655 19.5347 23.6466 18.7453 23.6466H3.25365ZM3.25365 20.7758H18.7453V9.29248H3.25365V20.7758Z"/>
</svg>
