<svg width="21" height="22" viewBox="0 0 21 22" fill="none" xmlns="http://www.w3.org/2000/svg">
<path d="M0 18.725V8.28333C0 7.79722 0.111806 7.33542 0.335417 6.89792C0.559028 6.46042 0.865278 6.09583 1.25417 5.80417L8.19583 0.6125C8.75972 0.204167 9.37222 0 10.0333 0C10.6944 0 11.3069 0.204167 11.8708 0.6125L18.8125 5.80417C19.2014 6.09583 19.5076 6.46042 19.7312 6.89792C19.9549 7.33542 20.0667 7.79722 20.0667 8.28333V18.725C20.0667 19.6 19.7701 20.334 19.1771 20.9271C18.584 21.5201 17.85 21.8167 16.975 21.8167H14.2042C13.7764 21.8167 13.4118 21.666 13.1104 21.3646C12.809 21.0632 12.6583 20.6986 12.6583 20.2708V14.4375C12.6583 14.0097 12.5076 13.6451 12.2063 13.3437C11.9049 13.0424 11.5403 12.8917 11.1125 12.8917H8.95417C8.52639 12.8917 8.16181 13.0424 7.86042 13.3437C7.55903 13.6451 7.40833 14.0097 7.40833 14.4375V20.2708C7.40833 20.6986 7.25764 21.0632 6.95625 21.3646C6.65486 21.666 6.29028 21.8167 5.8625 21.8167H3.09167C2.21667 21.8167 1.48264 21.5201 0.889583 20.9271C0.296528 20.334 0 19.6 0 18.725Z" />
</svg>
