<svg width="13" height="14" viewBox="0 0 13 14" fill="none" xmlns="http://www.w3.org/2000/svg">
<path d="M10.2714 10.0194L9.6068 10.6685C9.11697 11.1433 8.48145 11.7538 7.69992 12.5001C7.2116 12.9664 6.43685 12.9664 5.94858 12.4999L3.99398 10.6221C3.74833 10.3839 3.5427 10.183 3.37707 10.0194C1.47327 8.13907 1.47327 5.09041 3.37707 3.21006C5.28087 1.32972 8.36757 1.32972 10.2714 3.21006C12.1752 5.09041 12.1752 8.13907 10.2714 10.0194ZM8.22402 6.76664C8.22402 6.00306 7.5973 5.38407 6.82422 5.38407C6.05115 5.38407 5.42441 6.00306 5.42441 6.76664C5.42441 7.53019 6.05115 8.14919 6.82422 8.14919C7.5973 8.14919 8.22402 7.53019 8.22402 6.76664Z" fill="#4B5563"/>
</svg>
