<svg width="22" height="18" viewBox="0 0 22 18" fill="none" xmlns="http://www.w3.org/2000/svg">
<path d="M0.0898438 6.46256V2.17507C0.0898438 1.69576 0.25201 1.29394 0.576344 0.969606C0.900483 0.645467 1.3022 0.483398 1.78151 0.483398H4.52318C5.00248 0.483398 5.4043 0.645467 5.72863 0.969606C6.05277 1.29394 6.21484 1.69576 6.21484 2.17507V6.46256C6.21484 6.94187 6.05277 7.34369 5.72863 7.66802C5.4043 7.99216 5.00248 8.15423 4.52318 8.15423H1.78151C1.3022 8.15423 0.900483 7.99216 0.576344 7.66802C0.25201 7.34369 0.0898438 6.94187 0.0898438 6.46256ZM9.59818 8.15423C9.11887 8.15423 8.71705 7.99216 8.39272 7.66802C8.06858 7.34369 7.90651 6.94187 7.90651 6.46256V2.17507C7.90651 1.69576 8.06858 1.29394 8.39272 0.969606C8.71705 0.645467 9.11887 0.483398 9.59818 0.483398H12.3982C12.8775 0.483398 13.2793 0.645467 13.6036 0.969606C13.9278 1.29394 14.0898 1.69576 14.0898 2.17507V6.46256C14.0898 6.94187 13.9278 7.34369 13.6036 7.66802C13.2793 7.99216 12.8775 8.15423 12.3982 8.15423H9.59818ZM17.4732 8.15423C16.9939 8.15423 16.5921 7.99216 16.2677 7.66802C15.9436 7.34369 15.7815 6.94187 15.7815 6.46256V2.17507C15.7815 1.69576 15.9436 1.29394 16.2677 0.969606C16.5921 0.645467 16.9939 0.483398 17.4732 0.483398H20.2148C20.6941 0.483398 21.096 0.645467 21.4203 0.969606C21.7444 1.29394 21.9065 1.69576 21.9065 2.17507V6.46256C21.9065 6.94187 21.7444 7.34369 21.4203 7.66802C21.096 7.99216 20.6941 8.15423 20.2148 8.15423H17.4732ZM4.52318 17.5167H1.78151C1.3022 17.5167 0.900483 17.3546 0.576344 17.0302C0.25201 16.7061 0.0898438 16.3044 0.0898438 15.8251V11.5376C0.0898438 11.0583 0.25201 10.6564 0.576344 10.3321C0.900483 10.008 1.3022 9.8459 1.78151 9.8459H4.52318C5.00248 9.8459 5.4043 10.008 5.72863 10.3321C6.05277 10.6564 6.21484 11.0583 6.21484 11.5376V15.8251C6.21484 16.3044 6.05277 16.7061 5.72863 17.0302C5.4043 17.3546 5.00248 17.5167 4.52318 17.5167ZM9.59818 17.5167C9.11887 17.5167 8.71705 17.3546 8.39272 17.0302C8.06858 16.7061 7.90651 16.3044 7.90651 15.8251V11.5376C7.90651 11.0583 8.06858 10.6564 8.39272 10.3321C8.71705 10.008 9.11887 9.8459 9.59818 9.8459H12.3982C12.8775 9.8459 13.2793 10.008 13.6036 10.3321C13.9278 10.6564 14.0898 11.0583 14.0898 11.5376V15.8251C14.0898 16.3044 13.9278 16.7061 13.6036 17.0302C13.2793 17.3546 12.8775 17.5167 12.3982 17.5167H9.59818ZM17.4732 17.5167C16.9939 17.5167 16.5921 17.3546 16.2677 17.0302C15.9436 16.7061 15.7815 16.3044 15.7815 15.8251V11.5376C15.7815 11.0583 15.9436 10.6564 16.2677 10.3321C16.5921 10.008 16.9939 9.8459 17.4732 9.8459H20.2148C20.6941 9.8459 21.096 10.008 21.4203 10.3321C21.7444 10.6564 21.9065 11.0583 21.9065 11.5376V15.8251C21.9065 16.3044 21.7444 16.7061 21.4203 17.0302C21.096 17.3546 20.6941 17.5167 20.2148 17.5167H17.4732Z"/>
</svg>
