<svg width="18" height="24" viewBox="0 0 18 24" fill="none" xmlns="http://www.w3.org/2000/svg">
<path d="M8.9987 19.6127C8.76536 19.6127 8.53203 19.5738 8.2987 19.496C8.06536 19.4182 7.85148 19.3016 7.65703 19.146C5.36259 17.3182 3.65148 15.5342 2.5237 13.7939C1.39592 12.0536 0.832031 10.3474 0.832031 8.67516C0.832031 6.24461 1.59036 4.24669 3.10703 2.68141C4.6237 1.11613 6.58759 0.333496 8.9987 0.333496C11.4098 0.333496 13.3737 1.11613 14.8904 2.68141C16.407 4.24669 17.1654 6.24461 17.1654 8.67516C17.1654 10.3474 16.6015 12.0536 15.4737 13.7939C14.3459 15.5342 12.6348 17.3182 10.3404 19.146C10.1459 19.3016 9.93203 19.4182 9.6987 19.496C9.46536 19.5738 9.23203 19.6127 8.9987 19.6127ZM8.9987 10.8335C9.64036 10.8335 10.1897 10.605 10.6466 10.1481C11.1036 9.69114 11.332 9.14183 11.332 8.50016C11.332 7.8585 11.1036 7.30919 10.6466 6.85225C10.1897 6.3953 9.64036 6.16683 8.9987 6.16683C8.35703 6.16683 7.80773 6.3953 7.35078 6.85225C6.89384 7.30919 6.66536 7.8585 6.66536 8.50016C6.66536 9.14183 6.89384 9.69114 7.35078 10.1481C7.80773 10.605 8.35703 10.8335 8.9987 10.8335ZM1.9987 23.6668C1.66814 23.6668 1.39106 23.555 1.16745 23.3314C0.943837 23.1078 0.832031 22.8307 0.832031 22.5002C0.832031 22.1696 0.943837 21.8925 1.16745 21.6689C1.39106 21.4453 1.66814 21.3335 1.9987 21.3335H15.9987C16.3293 21.3335 16.6063 21.4453 16.8299 21.6689C17.0536 21.8925 17.1654 22.1696 17.1654 22.5002C17.1654 22.8307 17.0536 23.1078 16.8299 23.3314C16.6063 23.555 16.3293 23.6668 15.9987 23.6668H1.9987Z"/>
</svg>
