<svg width="22" height="22" viewBox="0 0 22 22" fill="none" xmlns="http://www.w3.org/2000/svg">
<g clip-path="url(#clip0_164_5077)">
<path d="M17.5457 11.8582C17.5787 11.5832 17.6007 11.2972 17.6007 11.0002C17.6007 10.7032 17.5787 10.4172 17.5347 10.1422L19.3937 8.6902C19.5587 8.5582 19.6027 8.3162 19.5037 8.1292L17.7437 5.0822C17.6337 4.8842 17.4027 4.8182 17.2047 4.8842L15.0157 5.7642C14.5537 5.4122 14.0697 5.1262 13.5307 4.9062L13.2007 2.5742C13.1677 2.3542 12.9807 2.2002 12.7607 2.2002H9.24067C9.02067 2.2002 8.84467 2.3542 8.81167 2.5742L8.48167 4.9062C7.94267 5.1262 7.44767 5.4232 6.99667 5.7642L4.80767 4.8842C4.60967 4.8072 4.37867 4.8842 4.26867 5.0822L2.50867 8.1292C2.39867 8.3272 2.44267 8.5582 2.61867 8.6902L4.47767 10.1422C4.43367 10.4172 4.40067 10.7142 4.40067 11.0002C4.40067 11.2862 4.42267 11.5832 4.46667 11.8582L2.60767 13.3102C2.44267 13.4422 2.39867 13.6842 2.49767 13.8712L4.25767 16.9182C4.36767 17.1162 4.59867 17.1822 4.79667 17.1162L6.98567 16.2362C7.44767 16.5882 7.93167 16.8742 8.47067 17.0942L8.80067 19.4262C8.84467 19.6462 9.02067 19.8002 9.24067 19.8002H12.7607C12.9807 19.8002 13.1677 19.6462 13.1897 19.4262L13.5197 17.0942C14.0587 16.8742 14.5537 16.5772 15.0047 16.2362L17.1937 17.1162C17.3917 17.1932 17.6227 17.1162 17.7327 16.9182L19.4927 13.8712C19.6027 13.6732 19.5587 13.4422 19.3827 13.3102L17.5457 11.8582ZM11.0007 14.3002C9.18567 14.3002 7.70067 12.8152 7.70067 11.0002C7.70067 9.1852 9.18567 7.7002 11.0007 7.7002C12.8157 7.7002 14.3007 9.1852 14.3007 11.0002C14.3007 12.8152 12.8157 14.3002 11.0007 14.3002Z" fill="#241F20"/>
</g>
<defs>
<clipPath id="clip0_164_5077">
<rect width="22" height="22" fill="white"/>
</clipPath>
</defs>
</svg>
