<svg width="29" height="29" viewBox="0 0 29 29" fill="none" xmlns="http://www.w3.org/2000/svg">
<mask id="mask0_164_5118" style="mask-type:alpha" maskUnits="userSpaceOnUse" x="0" y="0" width="29" height="29">
<rect x="0.75" y="0.75" width="27.5" height="27.5" fill="#D9D9D9"/>
</mask>
<g mask="url(#mask0_164_5118)">
<path d="M7.81771 24.2177C6.9717 24.2177 6.25412 23.9231 5.66497 23.334C5.07582 22.7448 4.78125 22.0273 4.78125 21.1812V19.262C4.78125 18.8401 4.92887 18.4816 5.22411 18.1863C5.51936 17.8913 5.87781 17.7438 6.29948 17.7438C6.72134 17.7438 7.07989 17.8913 7.37513 18.1863C7.67018 18.4816 7.81771 18.8401 7.81771 19.262V21.1812H21.1793V19.262C21.1793 18.8401 21.3268 18.4816 21.6218 18.1863C21.9171 17.8913 22.2756 17.7438 22.6975 17.7438C23.1192 17.7438 23.4776 17.8913 23.7729 18.1863C24.0681 18.4816 24.2157 18.8401 24.2157 19.262V21.1812C24.2157 22.0273 23.9212 22.7448 23.332 23.334C22.7429 23.9231 22.0253 24.2177 21.1793 24.2177H7.81771ZM12.9803 10.5872L11.2042 12.3632C10.9103 12.668 10.5572 12.821 10.1449 12.8221C9.73259 12.8234 9.37413 12.6717 9.06953 12.3669C8.77314 12.0623 8.62285 11.706 8.61865 11.2979C8.61444 10.8898 8.76474 10.5333 9.06953 10.2285L13.4211 5.8606C13.5682 5.71374 13.7355 5.60288 13.923 5.52802C14.1107 5.45335 14.3026 5.41602 14.4985 5.41602C14.6944 5.41602 14.8863 5.45335 15.074 5.52802C15.2615 5.60288 15.4288 5.71374 15.5759 5.8606L19.9438 10.2285C20.2377 10.5224 20.3825 10.8761 20.3783 11.2896C20.3741 11.7032 20.2293 12.057 19.9438 12.3509C19.639 12.6555 19.2804 12.8099 18.8681 12.8141C18.456 12.8183 18.0976 12.668 17.7928 12.3632L16.0167 10.5872V17.3714C16.0167 17.793 15.8691 18.1515 15.5739 18.4467C15.2788 18.742 14.9203 18.8896 14.4985 18.8896C14.0766 18.8896 13.7182 18.742 13.4231 18.4467C13.1279 18.1515 12.9803 17.793 12.9803 17.3714V10.5872Z" fill="white"/>
</g>
</svg>
