<svg width="166" height="139" viewBox="0 0 166 139" fill="none" xmlns="http://www.w3.org/2000/svg">
<g opacity="0.9">
<path d="M73.597 108.432C76.5551 117.579 71.5386 127.391 62.3923 130.349C53.246 133.307 43.4334 128.291 40.4753 119.145L24.9901 71.2654C22.032 62.1191 27.0485 52.3065 36.1948 49.3484C45.3411 46.3903 55.1537 51.4068 58.1118 60.5531L73.597 108.432Z" fill="url(#paint0_linear_164_5865)"/>
<rect x="48.2227" y="27.29" width="34.3245" height="34.3245" rx="17.1623" transform="rotate(141.572 48.2227 27.29)" fill="url(#paint1_linear_164_5865)"/>
<rect x="66.8281" y="136.345" width="34.8109" height="94.4867" rx="17.4054" transform="rotate(-155.145 66.8281 136.345)" fill="url(#paint2_linear_164_5865)"/>
<rect x="126.879" y="124.637" width="34.8109" height="94.4867" rx="17.4054" transform="rotate(160.168 126.879 124.637)" fill="url(#paint3_linear_164_5865)"/>
<rect x="114.734" y="138.345" width="34.8109" height="135.242" rx="17.4054" transform="rotate(-157.724 114.734 138.345)" fill="url(#paint4_linear_164_5865)"/>
</g>
<defs>
<linearGradient id="paint0_linear_164_5865" x1="62.3923" y1="130.349" x2="36.1948" y2="49.3484" gradientUnits="userSpaceOnUse">
<stop stop-color="#E2F9FF"/>
<stop offset="1" stop-color="#CBFDFF" stop-opacity="0.9"/>
</linearGradient>
<linearGradient id="paint1_linear_164_5865" x1="65.3849" y1="27.29" x2="65.3849" y2="61.6146" gradientUnits="userSpaceOnUse">
<stop stop-color="#CBFDFF" stop-opacity="0.9"/>
<stop offset="1" stop-color="white" stop-opacity="0.8"/>
</linearGradient>
<linearGradient id="paint2_linear_164_5865" x1="84.2336" y1="136.345" x2="84.2336" y2="230.831" gradientUnits="userSpaceOnUse">
<stop stop-color="#F3FDFF"/>
<stop offset="1" stop-color="#E5F6FF"/>
</linearGradient>
<linearGradient id="paint3_linear_164_5865" x1="97.409" y1="107.244" x2="144.284" y2="219.123" gradientUnits="userSpaceOnUse">
<stop stop-color="#AFA9FF"/>
<stop offset="1" stop-color="#EDF9FF" stop-opacity="0.95"/>
</linearGradient>
<linearGradient id="paint4_linear_164_5865" x1="132.14" y1="138.345" x2="132.14" y2="273.587" gradientUnits="userSpaceOnUse">
<stop stop-color="white" stop-opacity="0.8"/>
<stop offset="1" stop-color="white"/>
</linearGradient>
</defs>
</svg>
